<mxfile host="app.diagrams.net" modified="2023-10-04T19:08:47.856Z" agent="Mozilla/5.0 (Windows NT 10.0; Win64; x64) AppleWebKit/537.36 (KHTML, like Gecko) Chrome/117.0.0.0 Safari/537.36" etag="NW7n3WEMbeN3qCyrUUp7" version="22.0.2" type="device">
  <diagram name="Page-1" id="R-vtYA2fxaq1COLgrQGK">
    <mxGraphModel dx="1217" dy="-599" grid="1" gridSize="10" guides="1" tooltips="1" connect="1" arrows="1" fold="1" page="1" pageScale="1" pageWidth="850" pageHeight="1100" math="0" shadow="0">
      <root>
        <mxCell id="0" />
        <mxCell id="1" parent="0" />
        <mxCell id="kdftYnHSVsV1p3vMMBTJ-1" value="User" style="whiteSpace=wrap;html=1;align=center;" vertex="1" parent="1">
          <mxGeometry x="580" y="1450" width="100" height="40" as="geometry" />
        </mxCell>
        <mxCell id="kdftYnHSVsV1p3vMMBTJ-2" value="Username" style="ellipse;whiteSpace=wrap;html=1;align=center;" vertex="1" parent="1">
          <mxGeometry x="350" y="1560" width="100" height="40" as="geometry" />
        </mxCell>
        <mxCell id="kdftYnHSVsV1p3vMMBTJ-3" value="FirstName" style="ellipse;whiteSpace=wrap;html=1;align=center;" vertex="1" parent="1">
          <mxGeometry x="650" y="1560" width="100" height="40" as="geometry" />
        </mxCell>
        <mxCell id="kdftYnHSVsV1p3vMMBTJ-5" value="Birthdate" style="ellipse;whiteSpace=wrap;html=1;align=center;" vertex="1" parent="1">
          <mxGeometry x="450" y="1560" width="100" height="40" as="geometry" />
        </mxCell>
        <mxCell id="kdftYnHSVsV1p3vMMBTJ-6" value="HashedPassword" style="ellipse;whiteSpace=wrap;html=1;align=center;" vertex="1" parent="1">
          <mxGeometry x="250" y="1560" width="100" height="40" as="geometry" />
        </mxCell>
        <mxCell id="kdftYnHSVsV1p3vMMBTJ-7" value="UserId" style="ellipse;whiteSpace=wrap;html=1;align=center;fontStyle=4;" vertex="1" parent="1">
          <mxGeometry x="750" y="1560" width="100" height="40" as="geometry" />
        </mxCell>
        <mxCell id="kdftYnHSVsV1p3vMMBTJ-9" value="" style="endArrow=none;html=1;rounded=0;entryX=0.5;entryY=1;entryDx=0;entryDy=0;exitX=0.5;exitY=0;exitDx=0;exitDy=0;" edge="1" parent="1" source="kdftYnHSVsV1p3vMMBTJ-4" target="kdftYnHSVsV1p3vMMBTJ-1">
          <mxGeometry relative="1" as="geometry">
            <mxPoint x="365" y="2010" as="sourcePoint" />
            <mxPoint x="525" y="2010" as="targetPoint" />
          </mxGeometry>
        </mxCell>
        <mxCell id="kdftYnHSVsV1p3vMMBTJ-10" value="" style="endArrow=none;html=1;rounded=0;entryX=0.5;entryY=1;entryDx=0;entryDy=0;exitX=0.5;exitY=0;exitDx=0;exitDy=0;" edge="1" parent="1" source="kdftYnHSVsV1p3vMMBTJ-2" target="kdftYnHSVsV1p3vMMBTJ-1">
          <mxGeometry relative="1" as="geometry">
            <mxPoint x="365" y="2010" as="sourcePoint" />
            <mxPoint x="525" y="2010" as="targetPoint" />
          </mxGeometry>
        </mxCell>
        <mxCell id="kdftYnHSVsV1p3vMMBTJ-11" value="Role" style="whiteSpace=wrap;html=1;align=center;" vertex="1" parent="1">
          <mxGeometry x="100" y="1450" width="100" height="40" as="geometry" />
        </mxCell>
        <mxCell id="kdftYnHSVsV1p3vMMBTJ-12" value="RoleName" style="ellipse;whiteSpace=wrap;html=1;align=center;" vertex="1" parent="1">
          <mxGeometry y="1560" width="100" height="40" as="geometry" />
        </mxCell>
        <mxCell id="kdftYnHSVsV1p3vMMBTJ-13" value="RoleID" style="ellipse;whiteSpace=wrap;html=1;align=center;fontStyle=4;" vertex="1" parent="1">
          <mxGeometry x="100" y="1560" width="100" height="40" as="geometry" />
        </mxCell>
        <mxCell id="kdftYnHSVsV1p3vMMBTJ-14" value="HasRole" style="shape=rhombus;perimeter=rhombusPerimeter;whiteSpace=wrap;html=1;align=center;" vertex="1" parent="1">
          <mxGeometry x="300" y="1440" width="120" height="60" as="geometry" />
        </mxCell>
        <mxCell id="kdftYnHSVsV1p3vMMBTJ-15" value="" style="endArrow=none;html=1;rounded=0;exitX=1;exitY=0.5;exitDx=0;exitDy=0;entryX=0;entryY=0.5;entryDx=0;entryDy=0;" edge="1" parent="1" source="kdftYnHSVsV1p3vMMBTJ-14" target="kdftYnHSVsV1p3vMMBTJ-1">
          <mxGeometry relative="1" as="geometry">
            <mxPoint x="380" y="1570" as="sourcePoint" />
            <mxPoint x="205" y="1530" as="targetPoint" />
          </mxGeometry>
        </mxCell>
        <mxCell id="kdftYnHSVsV1p3vMMBTJ-16" value="" style="endArrow=none;html=1;rounded=0;entryX=0;entryY=0.5;entryDx=0;entryDy=0;exitX=1;exitY=0.5;exitDx=0;exitDy=0;" edge="1" parent="1" source="kdftYnHSVsV1p3vMMBTJ-11" target="kdftYnHSVsV1p3vMMBTJ-14">
          <mxGeometry relative="1" as="geometry">
            <mxPoint x="380" y="1570" as="sourcePoint" />
            <mxPoint x="540" y="1570" as="targetPoint" />
          </mxGeometry>
        </mxCell>
        <mxCell id="kdftYnHSVsV1p3vMMBTJ-17" value="Service" style="whiteSpace=wrap;html=1;align=center;" vertex="1" parent="1">
          <mxGeometry x="580" y="1180" width="100" height="40" as="geometry" />
        </mxCell>
        <mxCell id="kdftYnHSVsV1p3vMMBTJ-18" value="ServiceInfo" style="ellipse;whiteSpace=wrap;html=1;align=center;" vertex="1" parent="1">
          <mxGeometry x="430" y="1100" width="100" height="40" as="geometry" />
        </mxCell>
        <mxCell id="kdftYnHSVsV1p3vMMBTJ-19" value="ServiceTitle" style="ellipse;whiteSpace=wrap;html=1;align=center;" vertex="1" parent="1">
          <mxGeometry x="530" y="1100" width="100" height="40" as="geometry" />
        </mxCell>
        <mxCell id="kdftYnHSVsV1p3vMMBTJ-20" value="Category" style="ellipse;whiteSpace=wrap;html=1;align=center;" vertex="1" parent="1">
          <mxGeometry x="630" y="1100" width="100" height="40" as="geometry" />
        </mxCell>
        <mxCell id="kdftYnHSVsV1p3vMMBTJ-21" value="ServiceID" style="ellipse;whiteSpace=wrap;html=1;align=center;fontStyle=4;" vertex="1" parent="1">
          <mxGeometry x="730" y="1100" width="100" height="40" as="geometry" />
        </mxCell>
        <mxCell id="kdftYnHSVsV1p3vMMBTJ-22" value="" style="endArrow=none;html=1;rounded=0;entryX=0.5;entryY=0;entryDx=0;entryDy=0;exitX=0.5;exitY=1;exitDx=0;exitDy=0;" edge="1" parent="1" source="kdftYnHSVsV1p3vMMBTJ-18" target="kdftYnHSVsV1p3vMMBTJ-17">
          <mxGeometry relative="1" as="geometry">
            <mxPoint x="345" y="1930" as="sourcePoint" />
            <mxPoint x="505" y="1930" as="targetPoint" />
          </mxGeometry>
        </mxCell>
        <mxCell id="kdftYnHSVsV1p3vMMBTJ-23" value="" style="endArrow=none;html=1;rounded=0;entryX=0.5;entryY=0;entryDx=0;entryDy=0;exitX=0.5;exitY=1;exitDx=0;exitDy=0;" edge="1" parent="1" source="kdftYnHSVsV1p3vMMBTJ-19" target="kdftYnHSVsV1p3vMMBTJ-17">
          <mxGeometry relative="1" as="geometry">
            <mxPoint x="345" y="1930" as="sourcePoint" />
            <mxPoint x="505" y="1930" as="targetPoint" />
          </mxGeometry>
        </mxCell>
        <mxCell id="kdftYnHSVsV1p3vMMBTJ-24" value="" style="endArrow=none;html=1;rounded=0;entryX=0.5;entryY=0;entryDx=0;entryDy=0;exitX=0.5;exitY=1;exitDx=0;exitDy=0;" edge="1" parent="1" source="kdftYnHSVsV1p3vMMBTJ-20" target="kdftYnHSVsV1p3vMMBTJ-17">
          <mxGeometry relative="1" as="geometry">
            <mxPoint x="345" y="1930" as="sourcePoint" />
            <mxPoint x="505" y="1930" as="targetPoint" />
          </mxGeometry>
        </mxCell>
        <mxCell id="kdftYnHSVsV1p3vMMBTJ-25" value="" style="endArrow=none;html=1;rounded=0;entryX=0.5;entryY=1;entryDx=0;entryDy=0;exitX=0.5;exitY=0;exitDx=0;exitDy=0;" edge="1" parent="1" source="kdftYnHSVsV1p3vMMBTJ-17" target="kdftYnHSVsV1p3vMMBTJ-21">
          <mxGeometry relative="1" as="geometry">
            <mxPoint x="345" y="1930" as="sourcePoint" />
            <mxPoint x="505" y="1930" as="targetPoint" />
          </mxGeometry>
        </mxCell>
        <mxCell id="kdftYnHSVsV1p3vMMBTJ-26" value="" style="endArrow=none;html=1;rounded=0;entryX=0.5;entryY=0;entryDx=0;entryDy=0;exitX=0.5;exitY=1;exitDx=0;exitDy=0;" edge="1" parent="1" source="kdftYnHSVsV1p3vMMBTJ-1" target="kdftYnHSVsV1p3vMMBTJ-5">
          <mxGeometry relative="1" as="geometry">
            <mxPoint x="345" y="1930" as="sourcePoint" />
            <mxPoint x="505" y="1930" as="targetPoint" />
          </mxGeometry>
        </mxCell>
        <mxCell id="kdftYnHSVsV1p3vMMBTJ-27" value="" style="endArrow=none;html=1;rounded=0;entryX=0.5;entryY=0;entryDx=0;entryDy=0;exitX=0.5;exitY=1;exitDx=0;exitDy=0;" edge="1" parent="1" source="kdftYnHSVsV1p3vMMBTJ-1" target="kdftYnHSVsV1p3vMMBTJ-4">
          <mxGeometry relative="1" as="geometry">
            <mxPoint x="345" y="1930" as="sourcePoint" />
            <mxPoint x="505" y="1930" as="targetPoint" />
          </mxGeometry>
        </mxCell>
        <mxCell id="kdftYnHSVsV1p3vMMBTJ-28" value="" style="endArrow=none;html=1;rounded=0;entryX=0.5;entryY=0;entryDx=0;entryDy=0;exitX=0.5;exitY=1;exitDx=0;exitDy=0;" edge="1" parent="1" source="kdftYnHSVsV1p3vMMBTJ-1" target="kdftYnHSVsV1p3vMMBTJ-3">
          <mxGeometry relative="1" as="geometry">
            <mxPoint x="345" y="1930" as="sourcePoint" />
            <mxPoint x="505" y="1930" as="targetPoint" />
          </mxGeometry>
        </mxCell>
        <mxCell id="kdftYnHSVsV1p3vMMBTJ-29" value="" style="endArrow=none;html=1;rounded=0;entryX=0.5;entryY=0;entryDx=0;entryDy=0;exitX=0.5;exitY=1;exitDx=0;exitDy=0;" edge="1" parent="1" source="kdftYnHSVsV1p3vMMBTJ-1" target="kdftYnHSVsV1p3vMMBTJ-7">
          <mxGeometry relative="1" as="geometry">
            <mxPoint x="345" y="1930" as="sourcePoint" />
            <mxPoint x="505" y="1930" as="targetPoint" />
          </mxGeometry>
        </mxCell>
        <mxCell id="kdftYnHSVsV1p3vMMBTJ-30" value="Offers" style="shape=rhombus;perimeter=rhombusPerimeter;whiteSpace=wrap;html=1;align=center;" vertex="1" parent="1">
          <mxGeometry x="570" y="1300" width="120" height="60" as="geometry" />
        </mxCell>
        <mxCell id="kdftYnHSVsV1p3vMMBTJ-31" value="" style="endArrow=none;html=1;rounded=0;entryX=0.5;entryY=1;entryDx=0;entryDy=0;exitX=0.5;exitY=0;exitDx=0;exitDy=0;" edge="1" parent="1" source="kdftYnHSVsV1p3vMMBTJ-1" target="kdftYnHSVsV1p3vMMBTJ-30">
          <mxGeometry relative="1" as="geometry">
            <mxPoint x="345" y="1930" as="sourcePoint" />
            <mxPoint x="505" y="1930" as="targetPoint" />
          </mxGeometry>
        </mxCell>
        <mxCell id="kdftYnHSVsV1p3vMMBTJ-32" value="" style="endArrow=none;html=1;rounded=0;entryX=0.5;entryY=1;entryDx=0;entryDy=0;exitX=0.5;exitY=0;exitDx=0;exitDy=0;" edge="1" parent="1" source="kdftYnHSVsV1p3vMMBTJ-30" target="kdftYnHSVsV1p3vMMBTJ-17">
          <mxGeometry relative="1" as="geometry">
            <mxPoint x="345" y="1930" as="sourcePoint" />
            <mxPoint x="505" y="1930" as="targetPoint" />
          </mxGeometry>
        </mxCell>
        <mxCell id="kdftYnHSVsV1p3vMMBTJ-33" value="" style="endArrow=none;html=1;rounded=0;entryX=0.5;entryY=1;entryDx=0;entryDy=0;exitX=0.5;exitY=0;exitDx=0;exitDy=0;" edge="1" parent="1" source="kdftYnHSVsV1p3vMMBTJ-12" target="kdftYnHSVsV1p3vMMBTJ-11">
          <mxGeometry relative="1" as="geometry">
            <mxPoint x="300" y="1420" as="sourcePoint" />
            <mxPoint x="460" y="1420" as="targetPoint" />
          </mxGeometry>
        </mxCell>
        <mxCell id="kdftYnHSVsV1p3vMMBTJ-34" value="" style="endArrow=none;html=1;rounded=0;entryX=0.5;entryY=1;entryDx=0;entryDy=0;exitX=0.5;exitY=0;exitDx=0;exitDy=0;" edge="1" parent="1" source="kdftYnHSVsV1p3vMMBTJ-13" target="kdftYnHSVsV1p3vMMBTJ-11">
          <mxGeometry relative="1" as="geometry">
            <mxPoint x="300" y="1420" as="sourcePoint" />
            <mxPoint x="460" y="1420" as="targetPoint" />
          </mxGeometry>
        </mxCell>
        <mxCell id="kdftYnHSVsV1p3vMMBTJ-35" value="AppointmentSlot" style="whiteSpace=wrap;html=1;align=center;" vertex="1" parent="1">
          <mxGeometry x="100" y="1180" width="100" height="40" as="geometry" />
        </mxCell>
        <mxCell id="kdftYnHSVsV1p3vMMBTJ-36" value="Books" style="shape=rhombus;perimeter=rhombusPerimeter;whiteSpace=wrap;html=1;align=center;" vertex="1" parent="1">
          <mxGeometry x="300" y="1290" width="120" height="60" as="geometry" />
        </mxCell>
        <mxCell id="kdftYnHSVsV1p3vMMBTJ-37" value="Provides" style="shape=rhombus;perimeter=rhombusPerimeter;whiteSpace=wrap;html=1;align=center;" vertex="1" parent="1">
          <mxGeometry x="300" y="1170" width="120" height="60" as="geometry" />
        </mxCell>
        <mxCell id="kdftYnHSVsV1p3vMMBTJ-38" value="" style="endArrow=none;html=1;rounded=0;entryX=1;entryY=0.5;entryDx=0;entryDy=0;exitX=0;exitY=0.5;exitDx=0;exitDy=0;" edge="1" parent="1" source="kdftYnHSVsV1p3vMMBTJ-37" target="kdftYnHSVsV1p3vMMBTJ-35">
          <mxGeometry relative="1" as="geometry">
            <mxPoint x="230" y="1660" as="sourcePoint" />
            <mxPoint x="500" y="1760" as="targetPoint" />
          </mxGeometry>
        </mxCell>
        <mxCell id="kdftYnHSVsV1p3vMMBTJ-39" value="" style="endArrow=none;html=1;rounded=0;exitX=0;exitY=0.5;exitDx=0;exitDy=0;entryX=0.5;entryY=1;entryDx=0;entryDy=0;" edge="1" parent="1" source="kdftYnHSVsV1p3vMMBTJ-36" target="kdftYnHSVsV1p3vMMBTJ-35">
          <mxGeometry relative="1" as="geometry">
            <mxPoint x="340" y="1760" as="sourcePoint" />
            <mxPoint x="500" y="1760" as="targetPoint" />
          </mxGeometry>
        </mxCell>
        <mxCell id="kdftYnHSVsV1p3vMMBTJ-40" value="" style="endArrow=none;html=1;rounded=0;exitX=1;exitY=0.5;exitDx=0;exitDy=0;entryX=0;entryY=0.5;entryDx=0;entryDy=0;" edge="1" parent="1" source="kdftYnHSVsV1p3vMMBTJ-37" target="kdftYnHSVsV1p3vMMBTJ-17">
          <mxGeometry relative="1" as="geometry">
            <mxPoint x="340" y="1760" as="sourcePoint" />
            <mxPoint x="500" y="1760" as="targetPoint" />
          </mxGeometry>
        </mxCell>
        <mxCell id="kdftYnHSVsV1p3vMMBTJ-41" value="" style="endArrow=none;html=1;rounded=0;entryX=1;entryY=0.5;entryDx=0;entryDy=0;exitX=0.5;exitY=0;exitDx=0;exitDy=0;" edge="1" parent="1" source="kdftYnHSVsV1p3vMMBTJ-1" target="kdftYnHSVsV1p3vMMBTJ-36">
          <mxGeometry relative="1" as="geometry">
            <mxPoint x="340" y="1860" as="sourcePoint" />
            <mxPoint x="500" y="1860" as="targetPoint" />
          </mxGeometry>
        </mxCell>
        <mxCell id="kdftYnHSVsV1p3vMMBTJ-42" value="Start" style="ellipse;whiteSpace=wrap;html=1;align=center;" vertex="1" parent="1">
          <mxGeometry y="1100" width="100" height="40" as="geometry" />
        </mxCell>
        <mxCell id="kdftYnHSVsV1p3vMMBTJ-43" value="End" style="ellipse;whiteSpace=wrap;html=1;align=center;" vertex="1" parent="1">
          <mxGeometry x="100" y="1100" width="100" height="40" as="geometry" />
        </mxCell>
        <mxCell id="kdftYnHSVsV1p3vMMBTJ-45" value="AppointmentID" style="ellipse;whiteSpace=wrap;html=1;align=center;fontStyle=4;" vertex="1" parent="1">
          <mxGeometry x="200" y="1100" width="100" height="40" as="geometry" />
        </mxCell>
        <mxCell id="kdftYnHSVsV1p3vMMBTJ-46" value="" style="endArrow=none;html=1;rounded=0;entryX=0.5;entryY=1;entryDx=0;entryDy=0;exitX=0.5;exitY=0;exitDx=0;exitDy=0;" edge="1" parent="1" source="kdftYnHSVsV1p3vMMBTJ-35" target="kdftYnHSVsV1p3vMMBTJ-45">
          <mxGeometry relative="1" as="geometry">
            <mxPoint x="340" y="1560" as="sourcePoint" />
            <mxPoint x="500" y="1560" as="targetPoint" />
          </mxGeometry>
        </mxCell>
        <mxCell id="kdftYnHSVsV1p3vMMBTJ-47" value="" style="endArrow=none;html=1;rounded=0;entryX=0.5;entryY=1;entryDx=0;entryDy=0;exitX=0.5;exitY=0;exitDx=0;exitDy=0;" edge="1" parent="1" source="kdftYnHSVsV1p3vMMBTJ-35" target="kdftYnHSVsV1p3vMMBTJ-43">
          <mxGeometry relative="1" as="geometry">
            <mxPoint x="340" y="1560" as="sourcePoint" />
            <mxPoint x="500" y="1560" as="targetPoint" />
          </mxGeometry>
        </mxCell>
        <mxCell id="kdftYnHSVsV1p3vMMBTJ-48" value="" style="endArrow=none;html=1;rounded=0;exitX=0.5;exitY=1;exitDx=0;exitDy=0;entryX=0.5;entryY=0;entryDx=0;entryDy=0;" edge="1" parent="1" source="kdftYnHSVsV1p3vMMBTJ-42" target="kdftYnHSVsV1p3vMMBTJ-35">
          <mxGeometry relative="1" as="geometry">
            <mxPoint x="340" y="1560" as="sourcePoint" />
            <mxPoint x="500" y="1560" as="targetPoint" />
          </mxGeometry>
        </mxCell>
        <mxCell id="kdftYnHSVsV1p3vMMBTJ-50" value="" style="endArrow=none;html=1;rounded=0;entryX=0.5;entryY=1;entryDx=0;entryDy=0;exitX=0.5;exitY=0;exitDx=0;exitDy=0;" edge="1" parent="1" source="kdftYnHSVsV1p3vMMBTJ-6" target="kdftYnHSVsV1p3vMMBTJ-1">
          <mxGeometry relative="1" as="geometry">
            <mxPoint x="175" y="2060" as="sourcePoint" />
            <mxPoint x="630" y="1490" as="targetPoint" />
          </mxGeometry>
        </mxCell>
        <mxCell id="kdftYnHSVsV1p3vMMBTJ-4" value="LastName" style="ellipse;whiteSpace=wrap;html=1;align=center;" vertex="1" parent="1">
          <mxGeometry x="550" y="1560" width="100" height="40" as="geometry" />
        </mxCell>
      </root>
    </mxGraphModel>
  </diagram>
</mxfile>
